<svg width="3691" height="1631" xmlns="http://www.w3.org/2000/svg" xmlns:xlink="http://www.w3.org/1999/xlink" xml:space="preserve" overflow="hidden"><defs><clipPath id="clip0"><rect x="1330" y="857" width="3691" height="1631"/></clipPath></defs><g clip-path="url(#clip0)" transform="translate(-1330 -857)"><rect x="1331" y="858" width="3688" height="1628" fill="#FFFFFF"/><g><path d="M2072.57 1124.5 2072.57 2476.5M2139.57 1124.5 2139.57 2476.5M2206.57 1124.5 2206.57 2476.5M2273.57 1124.5 2273.57 2476.5M2339.58 1124.5 2339.58 2476.5M2406.58 1124.5 2406.58 2476.5M2473.58 1124.5 2473.58 2476.5M2540.58 1124.5 2540.58 2476.5M2607.59 1124.5 2607.59 2476.5M2674.59 1124.5 2674.59 2476.5M2741.59 1124.5 2741.59 2476.5M2807.59 1124.5 2807.59 2476.5M2874.59 1124.5 2874.59 2476.5M2941.6 1124.5 2941.6 2476.5M3008.6 1124.5 3008.6 2476.5M3075.6 1124.5 3075.6 2476.5M3142.6 1124.5 3142.6 2476.5M3209.61 1124.5 3209.61 2476.5M3276.61 1124.5 3276.61 2476.5M3342.61 1124.5 3342.61 2476.5M3409.61 1124.5 3409.61 2476.5M3476.61 1124.5 3476.61 2476.5M3543.62 1124.5 3543.62 2476.5M3610.62 1124.5 3610.62 2476.5M3677.62 1124.5 3677.62 2476.5M3744.62 1124.5 3744.62 2476.5M3810.62 1124.5 3810.62 2476.5M3877.63 1124.5 3877.63 2476.5M3944.63 1124.5 3944.63 2476.5M4011.63 1124.5 4011.63 2476.5M4078.63 1124.5 4078.63 2476.5M4145.64 1124.5 4145.64 2476.5M4212.64 1124.5 4212.64 2476.5M4278.64 1124.5 4278.64 2476.5M4345.64 1124.5 4345.64 2476.5M4412.65 1124.5 4412.65 2476.5M4479.65 1124.5 4479.65 2476.5M4546.65 1124.5 4546.65 2476.5M4613.65 1124.5 4613.65 2476.5M4680.65 1124.5 4680.65 2476.5M4746.66 1124.5 4746.66 2476.5M4813.5 1124.5 4813.5 2476.5" stroke="#F2F2F2" stroke-width="3.4375" stroke-linejoin="round" stroke-miterlimit="10" fill="none"/></g><g><path d="M2942.1 1183.04 2006 1183.04 2006 1260.04 2942.1 1260.04ZM3410.11 1376.05 3176.1 1376.05 3176.1 1453.05 3410.11 1453.05ZM3176.1 1569.05 2708.09 1569.05 2708.09 1646.05 3176.1 1646.05ZM4078.13 1762.06 2708.09 1762.06 2708.09 1839.06 4078.13 1839.06ZM4513.15 1955.06 2708.09 1955.06 2708.09 2032.07 4513.15 2032.07ZM4279.14 2148.07 3644.12 2148.07 3644.12 2225.07 4279.14 2225.07ZM4814.16 2341.08 4078.13 2341.08 4078.13 2418.08 4814.16 2418.08Z" fill="#002060"/></g><g><path d="M2005.5 1124.5 2005.5 2476.5" stroke="#D9D9D9" stroke-width="3.4375" stroke-linejoin="round" stroke-miterlimit="10" fill="none" fill-rule="evenodd"/></g><g><text fill="#595959" font-family="Calibri,Calibri_MSFontService,sans-serif" font-weight="400" font-size="55" transform="matrix(0.707107 0.707107 -0.707107 0.707107 1815.42 902)">31.10.2023</text></g><g><text fill="#595959" font-family="Calibri,Calibri_MSFontService,sans-serif" font-weight="400" font-size="55" transform="matrix(0.707107 0.707107 -0.707107 0.707107 2149.74 902)">10.11.2023</text></g><g><text fill="#595959" font-family="Calibri,Calibri_MSFontService,sans-serif" font-weight="400" font-size="55" transform="matrix(0.707107 0.707107 -0.707107 0.707107 2484.05 902)">20.11.2023</text></g><g><text fill="#595959" font-family="Calibri,Calibri_MSFontService,sans-serif" font-weight="400" font-size="55" transform="matrix(0.707107 0.707107 -0.707107 0.707107 2818.37 902)">30.11.2023</text></g><g><text fill="#595959" font-family="Calibri,Calibri_MSFontService,sans-serif" font-weight="400" font-size="55" transform="matrix(0.707107 0.707107 -0.707107 0.707107 3152.68 902)">10.12.2023</text></g><g><text fill="#595959" font-family="Calibri,Calibri_MSFontService,sans-serif" font-weight="400" font-size="55" transform="matrix(0.707107 0.707107 -0.707107 0.707107 3487 902)">20.12.2023</text></g><g><text fill="#595959" font-family="Calibri,Calibri_MSFontService,sans-serif" font-weight="400" font-size="55" transform="matrix(0.707107 0.707107 -0.707107 0.707107 3821.31 902)">30.12.2023</text></g><g><text fill="#595959" font-family="Calibri,Calibri_MSFontService,sans-serif" font-weight="400" font-size="55" transform="matrix(0.707107 0.707107 -0.707107 0.707107 4155.62 902)">09.01.2024</text></g><g><text fill="#595959" font-family="Calibri,Calibri_MSFontService,sans-serif" font-weight="400" font-size="55" transform="matrix(0.707107 0.707107 -0.707107 0.707107 4489.94 902)">19.01.2024</text></g><g><text fill="#595959" font-family="Calibri,Calibri_MSFontService,sans-serif" font-weight="400" font-size="55" transform="matrix(1 0 0 1 1634.74 1237)">Gold Standard</text></g><g><text fill="#595959" font-family="Calibri,Calibri_MSFontService,sans-serif" font-weight="400" font-size="55" transform="matrix(1 0 0 1 1617.73 1430)">Add Evaluation</text></g><g><text fill="#595959" font-family="Calibri,Calibri_MSFontService,sans-serif" font-weight="400" font-size="55" transform="matrix(1 0 0 1 1584.46 1623)">Pipeline Scaffold</text></g><g><text fill="#595959" font-family="Calibri,Calibri_MSFontService,sans-serif" font-weight="400" font-size="55" transform="matrix(1 0 0 1 1506.08 1816)">Complete Detection</text></g><g><text fill="#595959" font-family="Calibri,Calibri_MSFontService,sans-serif" font-weight="400" font-size="55" transform="matrix(1 0 0 1 1338.03 2009)">Improve Candidate Ranking</text></g><g><text fill="#595959" font-family="Calibri,Calibri_MSFontService,sans-serif" font-weight="400" font-size="55" transform="matrix(1 0 0 1 1680.25 2202)">Morphology</text></g><g><text fill="#595959" font-family="Calibri,Calibri_MSFontService,sans-serif" font-weight="400" font-size="55" transform="matrix(1 0 0 1 1824.49 2395)">Paper</text></g><rect x="1331.5" y="858.5" width="3688" height="1628" stroke="#D9D9D9" stroke-width="3.4375" stroke-linejoin="round" stroke-miterlimit="10" fill="none"/></g></svg>